<?xml version="1.0" encoding="UTF-8" standalone="no"?>
<!-- Created with Inkscape (http://www.inkscape.org/) -->

<svg
   xmlns:dc="http://purl.org/dc/elements/1.1/"
   xmlns:cc="http://creativecommons.org/ns#"
   xmlns:rdf="http://www.w3.org/1999/02/22-rdf-syntax-ns#"
   xmlns:svg="http://www.w3.org/2000/svg"
   xmlns="http://www.w3.org/2000/svg"
   xmlns:sodipodi="http://sodipodi.sourceforge.net/DTD/sodipodi-0.dtd"
   xmlns:inkscape="http://www.inkscape.org/namespaces/inkscape"
   width="2004mm"
   height="204mm"
   viewBox="0 0 2004 204"
   version="1.1"
   id="svg1079"
   inkscape:version="0.92.3 (2405546, 2018-03-11)"
   sodipodi:docname="ansol-lona.svg">
  <defs
     id="defs1073">
    <filter
       style="color-interpolation-filters:sRGB"
       inkscape:label="Invert"
       id="filter1225">
      <feColorMatrix
         type="hueRotate"
         values="180"
         result="color1"
         id="feColorMatrix1221" />
      <feColorMatrix
         values="-1 0 0 0 1 0 -1 0 0 1 0 0 -1 0 1 0.21 0.72 0.07 1 0 "
         result="color2"
         id="feColorMatrix1223" />
    </filter>
  </defs>
  <sodipodi:namedview
     id="base"
     pagecolor="#ffffff"
     bordercolor="#666666"
     borderopacity="1.0"
     inkscape:pageopacity="0"
     inkscape:pageshadow="2"
     inkscape:zoom="0.44602198"
     inkscape:cx="6811.9904"
     inkscape:cy="342.86779"
     inkscape:document-units="mm"
     inkscape:current-layer="layer1"
     showgrid="false"
     showguides="true"
     inkscape:guide-bbox="true"
     inkscape:window-width="1920"
     inkscape:window-height="1010"
     inkscape:window-x="0"
     inkscape:window-y="33"
     inkscape:window-maximized="1"
     inkscape:pagecheckerboard="true">
    <sodipodi:guide
       position="2,111.125"
       orientation="1,0"
       id="guide1081"
       inkscape:locked="false"
       inkscape:label=""
       inkscape:color="rgb(0,0,255)" />
    <sodipodi:guide
       position="2002,190.5"
       orientation="1,0"
       id="guide1083"
       inkscape:locked="false"
       inkscape:label=""
       inkscape:color="rgb(0,0,255)" />
    <sodipodi:guide
       position="-92.982141,2"
       orientation="0,1"
       id="guide1085"
       inkscape:locked="false"
       inkscape:label=""
       inkscape:color="rgb(0,0,255)" />
    <sodipodi:guide
       position="197.30358,202"
       orientation="0,1"
       id="guide1087"
       inkscape:locked="false"
       inkscape:label=""
       inkscape:color="rgb(0,0,255)" />
    <sodipodi:guide
       position="440,-421.13849"
       orientation="1,0"
       id="guide2277"
       inkscape:locked="false"
       inkscape:label=""
       inkscape:color="rgb(0,0,255)" />
    <sodipodi:guide
       position="1564,-493.54817"
       orientation="1,0"
       id="guide2279"
       inkscape:locked="false"
       inkscape:label=""
       inkscape:color="rgb(0,0,255)" />
  </sodipodi:namedview>
  <metadata
     id="metadata1076">
    <rdf:RDF>
      <cc:Work
         rdf:about="">
        <dc:format>image/svg+xml</dc:format>
        <dc:type
           rdf:resource="http://purl.org/dc/dcmitype/StillImage" />
        <dc:title />
      </cc:Work>
    </rdf:RDF>
  </metadata>
  <g
     inkscape:label="Layer 1"
     inkscape:groupmode="layer"
     id="layer1"
     transform="translate(0,-93)">
    <rect
       style="opacity:1;fill:#000000;fill-opacity:1;stroke:#000000;stroke-width:1.28554893;stroke-miterlimit:4;stroke-dasharray:none;stroke-opacity:1"
       id="rect1009"
       width="2002.7145"
       height="202.71445"
       x="0.64277446"
       y="93.642792"
       rx="8650.4111"
       ry="1.3572069" />
    <g
       id="g969"
       transform="matrix(0.53960346,0,0,0.53960346,194.88705,199.77793)">
      <g
         id="g959">
        <g
           transform="matrix(5.5345766,0,0,-5.5345766,517.93701,29.016807)"
           inkscape:label="ink_ext_XXXXXX"
           id="g1212"
           style="filter:url(#filter1225)">
          <g
             transform="scale(0.1)"
             id="g1214">
            <path
               inkscape:connector-curvature="0"
               id="path1216"
               style="fill:#000000;fill-opacity:1;fill-rule:evenodd;stroke:none"
               d="m 0,0 v 200 c 0,66.273 53.7266,120 120,120 h 240 c 66.273,0 120,-53.727 120,-120 V 0 H 400 V 120 H 80 V 0 Z m 80,200 v 0 c 0,22.09 17.9102,40 40,40 h 240 c 22.09,0 40,-17.91 40,-40 z M 560,0 v 200 c 0,66.273 53.727,120 120,120 h 240 c 66.273,0 120,-53.727 120,-120 V 0 h -80 v 200 c 0,22.09 -17.91,40 -40,40 H 680 c -22.09,0 -40,-17.91 -40,-40 V 0 Z m 580,0 h 360 c 55.23,0 100,44.7734 100,100 0,55.227 -44.77,100 -100,100 h -280 c -11.04,0 -20,8.957 -20,20 0,11.043 8.96,20 20,20 h 360 v 80 h -360 c -55.23,0 -100,-44.773 -100,-100 0,-55.227 44.77,-100 100,-100 h 280 c 11.04,0 20,-8.957 20,-20 0,-11.043 -8.96,-20 -20,-20 h -360 z m 540,120 v 80 c 0,66.273 53.73,120 120,120 h 240 c 66.27,0 120,-53.727 120,-120 V 120 C 2160,53.7266 2106.27,0 2040,0 h -240 c -66.27,0 -120,53.7266 -120,120 z m 80,0 v 80 c 0,22.09 17.91,40 40,40 h 240 c 22.09,0 40,-17.91 40,-40 v -80 c 0,-22.0898 -17.91,-40 -40,-40 h -240 c -22.09,0 -40,17.9102 -40,40 z m 480,200 V 120 C 2240,53.7266 2293.73,0 2360,0 h 280 v 80 h -280 c -22.09,0 -40,17.9102 -40,40 v 200" />
          </g>
        </g>
        <text
           xml:space="preserve"
           style="font-style:normal;font-variant:normal;font-weight:bold;font-stretch:normal;font-size:84.21931458px;line-height:1.25;font-family:sans-serif;-inkscape-font-specification:'sans-serif, Bold';font-variant-ligatures:normal;font-variant-caps:normal;font-variant-numeric:normal;font-feature-settings:normal;text-align:start;letter-spacing:0px;word-spacing:0px;writing-mode:lr-tb;text-anchor:start;fill:#44ffff;fill-opacity:1;stroke:none;stroke-width:1.57911205"
           x="1990.7227"
           y="29.094538"
           id="text871"><tspan
             sodipodi:role="line"
             id="tspan869"
             x="1990.7227"
             y="29.094538"
             style="font-style:normal;font-variant:normal;font-weight:bold;font-stretch:normal;font-size:232.99868774px;font-family:sans-serif;-inkscape-font-specification:'sans-serif, Bold';font-variant-ligatures:normal;font-variant-caps:normal;font-variant-numeric:normal;font-feature-settings:normal;text-align:start;writing-mode:lr-tb;text-anchor:start;fill:#44ffff;fill-opacity:1;stroke-width:1.57911205">.org</tspan></text>
      </g>
      <text
         id="text1919"
         y="126.07697"
         x="1470.1649"
         style="font-style:normal;font-weight:normal;font-size:74.70909119px;line-height:1.25;font-family:sans-serif;letter-spacing:0px;word-spacing:0px;fill:#000000;fill-opacity:1;stroke:none;stroke-width:1.86772728"
         xml:space="preserve"><tspan
           style="font-style:normal;font-variant:normal;font-weight:bold;font-stretch:normal;font-size:99.61212921px;font-family:Dosis;-inkscape-font-specification:'Dosis, Bold';font-variant-ligatures:normal;font-variant-caps:normal;font-variant-numeric:normal;font-feature-settings:normal;text-align:center;writing-mode:lr-tb;text-anchor:middle;fill:#ffffff;stroke-width:1.86772728"
           y="126.07697"
           x="1470.1649"
           id="tspan1917"
           sodipodi:role="line">Associação Nacional para o Software Livre</tspan></text>
    </g>
  </g>
</svg>
